# xmcd CD database file
#
# Track frame offsets:
#	150
#	16822
#	34189
#	50515
#	67115
#	83600
#	99310
#	118307
#	135047
#	153122
#	170365
#
# Disc length: 2475 seconds
#
# Revision: 4
# Processed by: cddbd v1.5.2PL0 Copyright (c) Steve Scherf et al.
# Submitted via: CDex 1.51
#
DISCID=7e09a90b
DTITLE=Cassadee Pope - Frame By Frame
DYEAR=2013
DGENRE=Country
TTITLE0=Good Times
TTITLE1=Champagne
TTITLE2=Wasting All These Tears
TTITLE3=I Wish I Could Break Your Heart
TTITLE4=Everybody Sings
TTITLE5=You Hear A Song
TTITLE6=This Car
TTITLE7=One Song Away
TTITLE8=Easier To Lie
TTITLE9=11
TTITLE10=Proved You Wrong
EXTD=YEAR: 2013
EXTT0=
EXTT1=
EXTT2=
EXTT3=
EXTT4=
EXTT5=
EXTT6=
EXTT7=
EXTT8=
EXTT9=
EXTT10=
PLAYORDER=
